<?xml version="1.0" encoding="iso-8859-1"?>
<!-- Generator: Adobe Illustrator 19.0.0, SVG Export Plug-In . SVG Version: 6.00 Build 0)  -->
<svg version="1.1" id="Capa_1" xmlns="http://www.w3.org/2000/svg" xmlns:xlink="http://www.w3.org/1999/xlink" x="0px" y="0px"
	 viewBox="0 0 512.001 512.001" style="enable-background:new 0 0 512.001 512.001;" xml:space="preserve">
<g>
	<g>
		<path d="M479.823,495.711L463.782,14.5C463.512,6.415,456.88,0,448.791,0H63.19c-8.09,0-14.723,6.415-14.992,14.5l-16.066,482
			c-0.135,4.063,1.385,8.007,4.211,10.929S43.06,512,47.124,512h417.733c0.009,0.001,0.015,0.001,0.021,0c8.283,0,15-6.716,15-15
			C479.878,496.565,479.858,496.136,479.823,495.711z M255.99,222.8c-61.427,0-111.4-49.974-111.4-111.4c0-8.284,6.716-15,15-15
			s15,6.716,15,15c0,44.885,36.517,81.4,81.4,81.4c44.884,0,81.4-36.516,81.4-81.4c0-8.284,6.716-15,15-15s15,6.716,15,15
			C367.39,172.826,317.417,222.8,255.99,222.8z"/>
	</g>
</g>
<g>
</g>
<g>
</g>
<g>
</g>
<g>
</g>
<g>
</g>
<g>
</g>
<g>
</g>
<g>
</g>
<g>
</g>
<g>
</g>
<g>
</g>
<g>
</g>
<g>
</g>
<g>
</g>
<g>
</g>
</svg>
