<svg id="Layer_1" enable-background="new 0 0 512 512" height="512" viewBox="0 0 512 512" width="512" xmlns="http://www.w3.org/2000/svg"><path d="m303.807 512c8.284 0 15-6.708 15-14.983 0-27.027.001-81.167 0-107.735h162.812c8.284 0 15-6.708 15-14.983.001-116.804.001-242.491 0-359.314 0-8.275-6.716-14.983-15-14.983h-62.613c-.007 0-.013-.001-.019-.001s-.013.001-.019.001h-210.775c-8.284 0-15 6.708-15 14.983v104.899h-162.812c-8.284 0-15 6.708-15 14.983v362.15c0 8.275 6.716 14.983 15 14.983zm-17.948-152.685v-89.755h118.128v89.755zm-30-59.853h-32.666v-29.902h32.666zm-147.812 59.853v-89.742h85.146v89.742zm-30-59.709h-32.666v-29.902h32.666zm0 29.967v29.742h-32.666v-29.742zm177.812-149.849h-32.666v-29.902h32.666zm-32.666 59.868v-29.902h32.666v29.902zm62.666-89.902h118.128v89.902h-118.128zm148.128 59.869h32.632v29.902h-32.632zm0-29.967v-29.902h32.632v29.902zm0-59.868v-29.903h32.632v29.902h-32.632zm-30 0h-118.128v-89.756h118.128zm-148.128.131h-32.666v-29.903h32.666zm-62.666 119.751h-85.146v-89.756h85.146zm-115.146.131h-32.666v-29.902h32.666zm-32.666 149.544h32.666v32.899h-32.666zm62.666 0h118.128v92.752h-118.128zm115.146-29.966v-29.886h32.666v29.886zm210.794-89.887h32.632v29.902h-32.632zm32.631-209.574h-32.632v-29.886h32.632zm-210.759-29.886v30.018h-32.666v-30.018zm-177.812 119.882v30.018h-32.666v-30.018zm-32.666 302.297h32.666v29.886h-32.666zm210.794 29.886v-30.018h32.632v30.018zm32.632-59.984h-32.632v-32.767h32.632zm145.18-62.734v-30.017h32.632v30.017z"/></svg>